<?xml version="1.0" encoding="UTF-8"?>
<svg width="20px" height="53px" viewBox="0 0 250 53" version="1.1" xmlns="http://www.w3.org/2000/svg" xmlns:xlink="http://www.w3.org/1999/xlink">
    <!-- Generator: Sketch 47.1 (45422) - http://www.bohemiancoding.com/sketch -->
    <title>Group</title>
    <desc>Created with Sketch.</desc>
    <defs></defs>
    <g id="Page-1" stroke="none" stroke-width="1" fill="none" fill-rule="evenodd">
        <g id="Everproof-Logo" transform="translate(-50.000000, -49.000000)">
            <g id="Group" transform="translate(50.000000, 49.000000)">
                <g id="Icon">
                    <rect id="Rectangle" fill="#53ACE7" x="0" y="0" width="52.6504298" height="52.5" rx="1"></rect>
                    <polygon id="Fill-10-Copy" fill="#FFFFFF" points="14.215616 10.9094994 14.215616 39.5289955 22.1602096 37.4063219 22.1602096 17.2775202 30.1030962 15.1548466"></polygon>
                    <polyline id="Fill-11-Copy" fill="#FFFFFF" points="30.5842784 18.9485597 30.5842784 35.2609746 22.6396848 37.3836482 38.527165 41.6289955 38.527165 13.0094994 30.5842784 15.132173 30.5842784 18.9485597"></polyline>
                </g>
                <path d="M151.862464,35.4005525 L151.862464,17.0994475 L159.148337,17.0994475 C163.477623,17.0994475 166.170228,19.53088 166.170228,23.2172455 L166.170228,23.2695343 C166.170228,27.3742107 162.844069,29.5180545 158.778764,29.5180545 L155.109429,29.5180545 L155.109429,35.4005525 L151.862464,35.4005525 Z M155.109429,26.6160221 L158.884356,26.6160221 C161.339378,26.6160221 162.870467,25.2565114 162.870467,23.3479676 L162.870467,23.2956788 C162.870467,21.151835 161.31298,20.0276243 158.884356,20.0276243 L155.109429,20.0276243 L155.109429,26.6160221 Z M170.193297,35.4005525 L170.193297,17.0994475 L178.429501,17.0994475 C180.752533,17.0994475 182.574001,17.7792028 183.761915,18.929558 C184.738644,19.9230466 185.293004,21.2825572 185.293004,22.8773678 L185.293004,22.9296567 C185.293004,25.9362668 183.471536,27.7402328 180.910921,28.472277 L185.90016,35.4005525 L182.046039,35.4005525 L177.505568,29.0213102 L173.440262,29.0213102 L173.440262,35.4005525 L170.193297,35.4005525 Z M173.440262,26.1715667 L178.191918,26.1715667 C180.51495,26.1715667 181.993243,24.9689227 181.993243,23.1126677 L181.993243,23.0603788 C181.993243,21.0995462 180.567746,20.0276243 178.16552,20.0276243 L173.440262,20.0276243 L173.440262,26.1715667 Z M198.792987,35.7142857 C193.117398,35.7142857 189.157684,31.4527427 189.157684,26.3022889 L189.157684,26.25 C189.157684,21.0995462 193.170194,16.7857143 198.845783,16.7857143 C204.521372,16.7857143 208.481086,21.0472573 208.481086,26.1977111 L208.481086,26.25 C208.481086,31.4004538 204.468576,35.7142857 198.792987,35.7142857 Z M198.845783,32.73382 C202.515117,32.73382 205.075732,29.8579321 205.075732,26.3022889 L205.075732,26.25 C205.075732,22.6943567 202.462321,19.7400355 198.792987,19.7400355 C195.123653,19.7400355 192.563038,22.6420679 192.563038,26.1977111 L192.563038,26.25 C192.563038,29.8056433 195.176449,32.73382 198.845783,32.73382 Z M221.928272,35.7142857 C216.252683,35.7142857 212.29297,31.4527427 212.29297,26.3022889 L212.29297,26.25 C212.29297,21.0995462 216.305479,16.7857143 221.981068,16.7857143 C227.656657,16.7857143 231.616371,21.0472573 231.616371,26.1977111 L231.616371,26.25 C231.616371,31.4004538 227.603861,35.7142857 221.928272,35.7142857 Z M221.981068,32.73382 C225.650403,32.73382 228.211017,29.8579321 228.211017,26.3022889 L228.211017,26.25 C228.211017,22.6943567 225.597606,19.7400355 221.928272,19.7400355 C218.258938,19.7400355 215.698323,22.6420679 215.698323,26.1977111 L215.698323,26.25 C215.698323,29.8056433 218.311734,32.73382 221.981068,32.73382 Z M236.246596,35.4005525 L239.493561,35.4005525 L239.493561,27.9493883 L248.812086,27.9493883 L248.812086,25.0212115 L239.493561,25.0212115 L239.493561,20.0276243 L250,20.0276243 L250,17.0994475 L236.246596,17.0994475 L236.246596,35.4005525 Z" id="PROOF-Copy" fill="#53ACE7"></path>
                <path d="M69.4842407,35.2254306 L82.9778037,35.2254306 L82.9778037,33.3287741 L71.5703297,33.3287741 L71.5703297,26.8748734 L81.6574942,26.8748734 L81.6574942,24.9782168 L71.5703297,24.9782168 L71.5703297,18.6823708 L82.8457728,18.6823708 L82.8457728,16.7857143 L69.4842407,16.7857143 L69.4842407,35.2254306 Z M95.7161496,35.3571429 L97.5645829,35.3571429 L105.512846,16.7857143 L103.26832,16.7857143 L96.6667725,32.6702128 L90.0916312,16.7857143 L87.7678865,16.7857143 L95.7161496,35.3571429 Z M111.33277,35.2254306 L124.826333,35.2254306 L124.826333,33.3287741 L113.418859,33.3287741 L113.418859,26.8748734 L123.506024,26.8748734 L123.506024,24.9782168 L113.418859,24.9782168 L113.418859,18.6823708 L124.694302,18.6823708 L124.694302,16.7857143 L111.33277,16.7857143 L111.33277,35.2254306 Z M131.200787,35.2254306 L131.200787,16.7857143 L139.149051,16.7857143 C141.419983,16.7857143 143.24201,17.470618 144.403882,18.6296859 C145.301693,19.5253293 145.829817,20.8161094 145.829817,22.2649443 L145.829817,22.3176292 C145.829817,25.3733536 143.717321,27.1646403 140.812641,27.6914894 L146.489971,35.2254306 L143.928571,35.2254306 L138.568114,28.0602837 L133.286876,28.0602837 L133.286876,35.2254306 L131.200787,35.2254306 Z M133.286876,26.1899696 L138.964207,26.1899696 C141.736857,26.1899696 143.717321,24.7674772 143.717321,22.3966565 L143.717321,22.3439716 C143.717321,20.0785208 141.974513,18.7087133 138.990613,18.7087133 L133.286876,18.7087133 L133.286876,26.1899696 Z" id="EVER-Copy" fill="#53ACE7"></path>
            </g>
        </g>
    </g>
</svg>
